# xmcd CD database file
#
# Track frame offsets:
#	150
#	16558
#	30503
#	46061
#	59326
#	74088
#	87759
#	107492
#	121903
#	135456
#	146460
#	162658
#	179467
#	194554
#
# Disc length: 2744 seconds
#
# Revision: 0
# Processed by: cddbd v1.5.2PL0 Copyright (c) Steve Scherf et al.
# Submitted via: CDex 1.51
#
DISCID=bb0ab60e
DTITLE=SPECIAL 69 - GET UP AND DANCE
DYEAR=2009
DGENRE=Country
TTITLE0=Louisa Bedard and Geery Bouthillier - Down On The Rio Grande
TTITLE1=Tim Gauci - Genie In A Bottle
TTITLE2=Jos Slijpen - Beautiful Dreamer
TTITLE3=David Linger - Honey I Love U
TTITLE4=Noel Brady - I Shall Return
TTITLE5=Charlie Mifsud - Startin' Fires
TTITLE6=Rachael McEnany - Toes
TTITLE7=Richard Meurink - Still Out There Swinging
TTITLE8=John Warnars - Keys In The Mailbox
TTITLE9=Tilly Benraadt - Making Up Time
TTITLE10=Dave Munro - Kickin' It
TTITLE11=Gaye Teather - Not A Bad Guy
TTITLE12=Ria Vos - Pack My Bags
TTITLE13=Bastiaan van Leeuwen - Skiff-A-Billy Line Dance
EXTD=YEAR: 2009
EXTT0=
EXTT1=
EXTT2=
EXTT3=
EXTT4=
EXTT5=
EXTT6=
EXTT7=
EXTT8=
EXTT9=
EXTT10=
EXTT11=
EXTT12=
EXTT13=
PLAYORDER=
